<svg width="51" height="50" viewBox="0 0 51 50" fill="none" xmlns="http://www.w3.org/2000/svg">
<path d="M34.7501 6.89806C36.2263 6.00996 37.9427 5.49943 39.7161 5.42098C41.4895 5.34253 43.2532 5.6991 44.819 6.45263C46.3848 7.20615 47.6939 8.32833 48.6064 9.69934C49.5189 11.0703 50.0006 12.6387 50 14.2369C50.0014 16.4819 49.0519 18.6429 47.3448 20.2796C45.6378 21.9164 43.3017 22.9057 40.8125 23.046H39.1111M34.7501 6.89806C34.0765 5.17384 32.8248 3.68039 31.1679 2.6239C29.5109 1.56741 27.5305 1 25.5 1C23.4695 1 21.4891 1.56741 19.8321 2.6239C18.1752 3.68039 16.9235 5.17384 16.2499 6.89806M34.7501 6.89806C35.3939 8.54818 35.4782 10.3333 34.9924 12.0267M16.2499 6.89806C17.498 7.65006 18.5375 8.65024 19.2879 9.82134M16.2499 6.89806C14.7737 6.00996 13.0573 5.49943 11.2839 5.42098C9.51051 5.34253 7.74675 5.6991 6.18095 6.45263C4.61515 7.20615 3.30611 8.32833 2.39362 9.69934C1.48112 11.0703 0.99944 12.6387 1 14.2369C0.99859 16.4819 1.94814 18.6429 3.65519 20.2796C5.36223 21.9164 7.69832 22.9057 10.1875 23.046H11.8889M39.1111 30.3971V20.5956M11.8889 30.3971V20.5956M41.8333 31.6223C37.4805 30.0981 31.7611 29.1719 25.5 29.1719C19.2389 29.1719 13.5222 30.0981 9.16667 31.6223M39.1111 37.7482C39.1111 40.9976 37.6771 44.1139 35.1245 46.4115C32.5719 48.7092 29.1099 50 25.5 50C21.8901 50 18.4281 48.7092 15.8755 46.4115C13.3229 44.1139 11.8889 40.9976 11.8889 37.7482" stroke="black" stroke-width="1.5" stroke-linecap="round" stroke-linejoin="round"/>
</svg>
