<svg width="40" height="56" viewBox="0 0 40 56" fill="none" xmlns="http://www.w3.org/2000/svg">
<path fill-rule="evenodd" clip-rule="evenodd" d="M17.1797 29.9812L2.57308 2.50744C2.48916 2.34962 2.43716 2.17682 2.42002 1.9989C2.40289 1.82097 2.42097 1.64142 2.47323 1.47049C2.57877 1.12527 2.81713 0.836122 3.13586 0.666648C3.4546 0.497174 3.8276 0.461257 4.17282 0.5668C4.34375 0.61906 4.50272 0.704475 4.64064 0.81817C4.77856 0.931865 4.89274 1.07161 4.97666 1.22943L19.5846 28.7032L21.6561 27.6008C22.2874 27.2651 22.9787 27.0571 23.6905 26.9887C24.4022 26.9202 25.1205 26.9926 25.8043 27.2018C26.488 27.411 27.1239 27.7528 27.6755 28.2077C28.2271 28.6627 28.6837 29.2218 29.0193 29.8533L29.9012 31.5124L39.2515 45.1962L27.3588 51.5181L23.239 43.3751L20.8109 44.6041L24.9552 52.7975L19.8568 55.5073L13.739 40.1032L12.8584 38.4454C12.5227 37.8142 12.3146 37.123 12.2461 36.4113C12.1775 35.6996 12.2498 34.9813 12.4589 34.2976C12.6679 33.6138 13.0096 32.978 13.4644 32.4263C13.9192 31.8746 14.4782 31.4179 15.1095 31.0823L17.1797 29.9812ZM22.9327 30.0057L16.3862 33.4859C16.0705 33.6537 15.791 33.882 15.5636 34.1579C15.3362 34.4337 15.1654 34.7516 15.0608 35.0935C14.9563 35.4354 14.9202 35.7945 14.9544 36.1503C14.9887 36.5062 15.0928 36.8518 15.2606 37.1674L16.1412 38.8252L27.4963 32.7876L26.6143 31.1313C26.4465 30.8156 26.2182 30.5361 25.9423 30.3087C25.6665 30.0813 25.3485 29.9105 25.0067 29.8059C24.6648 29.7014 24.3057 29.6653 23.9498 29.6995C23.594 29.7338 23.2484 29.8378 22.9327 30.0057Z" fill="black"/>
<path d="M11.3354 43.2622C11.1045 42.9849 10.773 42.8106 10.4136 42.7777C10.0543 42.7447 9.69653 42.8559 9.41909 43.0866H9.42181L9.40684 43.0975L9.32246 43.1628C9.20019 43.2543 9.07538 43.3424 8.94818 43.4269C8.61064 43.6515 8.10706 43.9577 7.45921 44.2653C5.79398 45.0656 3.97153 45.4855 2.12397 45.4943C1.763 45.4943 1.41682 45.6377 1.16158 45.8929C0.906334 46.1482 0.762939 46.4944 0.762939 46.8553C0.762939 47.2163 0.906334 47.5625 1.16158 47.8177C1.41682 48.073 1.763 48.2163 2.12397 48.2163C4.37648 48.2077 6.5988 47.6976 8.62969 46.7233C9.26283 46.4227 9.87408 46.0779 10.4589 45.6916C10.6777 45.5452 10.891 45.3908 11.0986 45.2289L11.1394 45.1976L11.153 45.1867L11.1571 45.1813H11.1599L11.1612 45.1785C11.4383 44.9475 11.6124 44.6158 11.645 44.2564C11.6777 43.8971 11.5663 43.5395 11.3354 43.2622ZM14.1446 50.183C14.2438 50.3317 14.3128 50.4985 14.3475 50.6739C14.3823 50.8492 14.3821 51.0297 14.3471 51.205C14.3121 51.3803 14.2429 51.547 14.1435 51.6955C14.044 51.8441 13.9163 51.9716 13.7676 52.0708L13.7649 52.0735L13.7594 52.0762L13.7458 52.0844L13.7036 52.1116L13.5485 52.211C12.7339 52.7102 11.8873 53.1553 11.0142 53.5434C9.40548 54.258 7.16114 55.0215 4.84603 55.0215C4.48506 55.0215 4.13888 54.8781 3.88364 54.6229C3.62839 54.3676 3.485 54.0214 3.485 53.6605C3.485 53.2995 3.62839 52.9533 3.88364 52.6981C4.13888 52.4428 4.48506 52.2994 4.84603 52.2994C6.61265 52.2994 8.45276 51.7019 9.9077 51.0555C10.6662 50.7182 11.4018 50.3318 12.1098 49.8986C12.1634 49.8668 12.2024 49.8423 12.2269 49.8251L12.2541 49.8088L12.2568 49.806C12.4055 49.7068 12.5723 49.6379 12.7477 49.6031C12.923 49.5684 13.1035 49.5685 13.2788 49.6035C13.4541 49.6385 13.6208 49.7077 13.7693 49.8071C13.9179 49.9066 14.0454 50.0343 14.1446 50.183Z" fill="black"/>
</svg>
