<svg width="52" height="52" viewBox="0 0 52 52" fill="none" xmlns="http://www.w3.org/2000/svg">
<path d="M43.6744 8.32506C39.5725 4.19631 34.1585 1.62809 28.366 1.06316C22.5735 0.498233 16.7653 1.972 11.9429 5.23038C7.1205 8.48877 3.58603 13.3276 1.94885 18.9126C0.311673 24.4976 0.674379 30.4788 2.97444 35.8251C3.21417 36.322 3.29282 36.8813 3.19944 37.4251L0.999441 48.0001C0.914681 48.4055 0.931989 48.8257 1.04981 49.2228C1.16763 49.6199 1.38227 49.9814 1.67444 50.2751C1.91395 50.5128 2.19913 50.6996 2.51278 50.8242C2.82643 50.9488 3.16206 51.0087 3.49944 51.0001H3.99944L14.6994 48.8501C15.2433 48.7847 15.7947 48.8622 16.2994 49.0751C21.6457 51.3751 27.6269 51.7378 33.2119 50.1006C38.7969 48.4635 43.6357 44.929 46.8941 40.1066C50.1525 35.2842 51.6263 29.476 51.0613 23.6835C50.4964 17.891 47.9282 12.477 43.7994 8.37506L43.6744 8.32506ZM15.9994 28.5001C15.505 28.5001 15.0216 28.3534 14.6105 28.0787C14.1994 27.804 13.879 27.4136 13.6897 26.9568C13.5005 26.5 13.451 25.9973 13.5475 25.5123C13.6439 25.0274 13.882 24.5819 14.2317 24.2323C14.5813 23.8827 15.0268 23.6446 15.5117 23.5481C15.9967 23.4516 16.4993 23.5011 16.9562 23.6904C17.413 23.8796 17.8034 24.2 18.0781 24.6111C18.3528 25.0223 18.4994 25.5056 18.4994 26.0001C18.4994 26.6631 18.236 27.299 17.7672 27.7678C17.2984 28.2367 16.6625 28.5001 15.9994 28.5001ZM25.9994 28.5001C25.505 28.5001 25.0216 28.3534 24.6105 28.0787C24.1994 27.804 23.879 27.4136 23.6897 26.9568C23.5005 26.5 23.451 25.9973 23.5475 25.5123C23.6439 25.0274 23.882 24.5819 24.2317 24.2323C24.5813 23.8827 25.0268 23.6446 25.5117 23.5481C25.9967 23.4516 26.4993 23.5011 26.9562 23.6904C27.413 23.8796 27.8034 24.2 28.0781 24.6111C28.3528 25.0223 28.4994 25.5056 28.4994 26.0001C28.4994 26.6631 28.236 27.299 27.7672 27.7678C27.2984 28.2367 26.6625 28.5001 25.9994 28.5001ZM35.9994 28.5001C35.505 28.5001 35.0216 28.3534 34.6105 28.0787C34.1994 27.804 33.879 27.4136 33.6897 26.9568C33.5005 26.5 33.451 25.9973 33.5475 25.5123C33.6439 25.0274 33.882 24.5819 34.2317 24.2323C34.5813 23.8827 35.0268 23.6446 35.5117 23.5481C35.9967 23.4516 36.4993 23.5011 36.9561 23.6904C37.413 23.8796 37.8034 24.2 38.0781 24.6111C38.3528 25.0223 38.4994 25.5056 38.4994 26.0001C38.4994 26.6631 38.236 27.299 37.7672 27.7678C37.2984 28.2367 36.6625 28.5001 35.9994 28.5001Z" fill="#181A18"/>
</svg>
