<svg width="18" height="18" viewBox="0 0 18 18" fill="none" xmlns="http://www.w3.org/2000/svg">
<path fill-rule="evenodd" clip-rule="evenodd" d="M16.7625 1.66291C16.849 1.56402 16.9151 1.44907 16.9572 1.32462C16.9993 1.20017 17.0164 1.06865 17.0076 0.937585C16.9988 0.806515 16.9643 0.678457 16.9061 0.560722C16.8478 0.442987 16.7669 0.337882 16.668 0.251406C16.5691 0.164931 16.4542 0.098779 16.3297 0.0567279C16.2053 0.0146768 16.0738 -0.00245013 15.9427 0.00632501C15.8116 0.0151001 15.6836 0.0496056 15.5658 0.107871C15.4481 0.166136 15.343 0.247021 15.2565 0.345906L10.1465 6.18591L5.80952 0.403906C5.71638 0.27971 5.59559 0.178907 5.45674 0.109479C5.31788 0.0400512 5.16477 0.00390625 5.00952 0.00390625H1.00952C0.82381 0.00390625 0.641767 0.0556209 0.483791 0.153255C0.325815 0.25089 0.198148 0.390587 0.115095 0.556693C0.0320417 0.722798 -0.00311532 0.90875 0.0135627 1.09371C0.0302406 1.27867 0.0980948 1.45534 0.209522 1.60391L6.64652 10.1859L1.25652 16.3459C1.17005 16.4448 1.10389 16.5597 1.06184 16.6842C1.01979 16.8086 1.00267 16.9402 1.01144 17.0712C1.02022 17.2023 1.05472 17.3304 1.11299 17.4481C1.17125 17.5658 1.25214 17.6709 1.35102 17.7574C1.44991 17.8439 1.56486 17.91 1.68931 17.9521C1.81376 17.9941 1.94527 18.0113 2.07634 18.0025C2.20741 17.9937 2.33547 17.9592 2.45321 17.9009C2.57094 17.8427 2.67605 17.7618 2.76252 17.6629L7.87252 11.8219L12.2095 17.6039C12.3027 17.7281 12.4235 17.8289 12.5623 17.8983C12.7012 17.9678 12.8543 18.0039 13.0095 18.0039H17.0095C17.1952 18.0039 17.3773 17.9522 17.5353 17.8546C17.6932 17.7569 17.8209 17.6172 17.9039 17.4511C17.987 17.285 18.0222 17.0991 18.0055 16.9141C17.9888 16.7291 17.9209 16.5525 17.8095 16.4039L11.3725 7.82191L16.7625 1.66291ZM13.5095 16.0039L3.00952 2.00391H4.50952L15.0095 16.0039H13.5095Z" fill="#064749"/>
</svg>
