<svg width="18" height="18" viewBox="0 0 18 18" fill="none" xmlns="http://www.w3.org/2000/svg">
<path d="M12.15 5.39994C11.3835 5.39731 10.6241 5.54583 9.91511 5.83701C9.20612 6.12819 8.56151 6.55632 8.01816 7.09689C7.4748 7.63745 7.04337 8.27986 6.74855 8.98734C6.45373 9.69482 6.3013 10.4535 6.29999 11.2199V17.0999C6.29999 17.3386 6.39481 17.5676 6.56359 17.7363C6.73237 17.9051 6.96129 17.9999 7.19999 17.9999H9.29999C9.53868 17.9999 9.7676 17.9051 9.93638 17.7363C10.1052 17.5676 10.2 17.3386 10.2 17.0999V11.2199C10.1998 10.9473 10.257 10.6778 10.368 10.4288C10.479 10.1798 10.6412 9.95698 10.8441 9.77488C11.0469 9.59278 11.2859 9.45548 11.5453 9.37192C11.8048 9.28836 12.079 9.26043 12.35 9.28994C12.836 9.35115 13.2826 9.5886 13.6052 9.95725C13.9278 10.3259 14.1038 10.8001 14.1 11.2899V17.0999C14.1 17.3386 14.1948 17.5676 14.3636 17.7363C14.5324 17.9051 14.7613 17.9999 15 17.9999H17.1C17.3387 17.9999 17.5676 17.9051 17.7364 17.7363C17.9052 17.5676 18 17.3386 18 17.0999V11.2199C17.9987 10.4535 17.8462 9.69482 17.5514 8.98734C17.2566 8.27986 16.8252 7.63745 16.2818 7.09689C15.7385 6.55632 15.0939 6.12819 14.3849 5.83701C13.6759 5.54583 12.9164 5.39731 12.15 5.39994Z" fill="#064749"/>
<path d="M3.6 6.2998H0.9C0.402944 6.2998 0 6.70275 0 7.1998V17.0998C0 17.5969 0.402944 17.9998 0.9 17.9998H3.6C4.09706 17.9998 4.5 17.5969 4.5 17.0998V7.1998C4.5 6.70275 4.09706 6.2998 3.6 6.2998Z" fill="#064749"/>
<path d="M2.25 4.5C3.49264 4.5 4.5 3.49264 4.5 2.25C4.5 1.00736 3.49264 0 2.25 0C1.00736 0 0 1.00736 0 2.25C0 3.49264 1.00736 4.5 2.25 4.5Z" fill="#064749"/>
</svg>
