<svg width="49" height="52" viewBox="0 0 49 52" fill="none" xmlns="http://www.w3.org/2000/svg">
<path d="M4.37251 50.5005L15.196 45.056V36.8894H47.6666M23.3137 45.056H47.6666M15.196 28.7227L23.3137 23.2783L26.0196 12.3894C34.1372 15.1116 34.1372 23.2783 34.1372 28.7227M1.66663 36.8894C1.66663 37.6114 1.95171 38.3038 2.45916 38.8143C2.96661 39.3248 3.65486 39.6116 4.37251 39.6116C5.09015 39.6116 5.7784 39.3248 6.28586 38.8143C6.79331 38.3038 7.07839 37.6114 7.07839 36.8894C7.07839 36.1674 6.79331 35.475 6.28586 34.9645C5.7784 34.454 5.09015 34.1672 4.37251 34.1672C3.65486 34.1672 2.96661 34.454 2.45916 34.9645C1.95171 35.475 1.66663 36.1674 1.66663 36.8894ZM15.196 4.22271C15.196 4.94469 15.4811 5.6371 15.9886 6.14761C16.496 6.65813 17.1843 6.94493 17.9019 6.94493C18.6196 6.94493 19.3078 6.65813 19.8153 6.14761C20.3227 5.6371 20.6078 4.94469 20.6078 4.22271C20.6078 3.50073 20.3227 2.80832 19.8153 2.29781C19.3078 1.78729 18.6196 1.50049 17.9019 1.50049C17.1843 1.50049 16.496 1.78729 15.9886 2.29781C15.4811 2.80832 15.196 3.50073 15.196 4.22271Z" stroke="black" stroke-width="2" stroke-linecap="round" stroke-linejoin="round"/>
</svg>
